<svg width="201" height="208" viewBox="0 0 201 208" fill="none" xmlns="http://www.w3.org/2000/svg">
<path d="M95.5837 145V139.239H107.107V145H95.5837ZM52.7051 145V139.239H94.2541L89.4898 143.671V119.295C89.4898 113.46 88.7512 108.806 87.2739 105.335C85.7966 101.789 83.4329 99.2409 80.1828 97.6898C77.0066 96.1386 72.7594 95.363 67.4411 95.363H58.4666V89.6016H67.4411C73.3503 89.6016 78.4101 90.5249 82.6204 92.3715C86.8307 94.2181 90.0438 97.3204 92.2597 101.678C94.4757 105.963 95.5837 111.835 95.5837 119.295V145H52.7051ZM107.107 145V139.239C107.55 139.239 107.919 139.313 108.215 139.46C108.51 139.608 108.732 139.83 108.879 140.125C109.027 140.347 109.138 140.642 109.212 141.012C109.286 141.381 109.323 141.75 109.323 142.12C109.323 142.563 109.286 142.969 109.212 143.338C109.138 143.708 109.027 144.003 108.879 144.225C108.732 144.446 108.51 144.631 108.215 144.779C107.919 144.926 107.55 145 107.107 145ZM161.314 145V139.239H172.837V145H161.314ZM107.134 145C106.617 145 106.211 144.963 105.916 144.889C105.62 144.742 105.398 144.557 105.251 144.335C105.103 144.04 105.029 143.708 105.029 143.338C104.955 142.969 104.918 142.563 104.918 142.12C104.918 141.529 104.992 141.048 105.14 140.679C105.214 140.236 105.398 139.904 105.694 139.682C105.989 139.387 106.47 139.239 107.134 139.239V145ZM107.134 145V139.239H157.325L155.11 141.233V110.875C155.11 105.704 153.485 101.863 150.234 99.3517C146.984 96.7665 142.072 95.4738 135.498 95.4738C133.282 95.4738 130.439 95.6585 126.967 96.0278C123.569 96.3233 119.544 96.8034 114.89 97.4682L114.225 92.3715C117.18 91.7067 120.504 91.0789 124.197 90.4879C127.964 89.897 131.621 89.6016 135.166 89.6016C140.706 89.6016 145.396 90.4141 149.237 92.0391C153.152 93.6641 156.144 96.0647 158.212 99.2409C160.28 102.417 161.314 106.295 161.314 110.875V145H107.134ZM172.837 145V139.239C173.28 139.239 173.65 139.313 173.945 139.46C174.241 139.608 174.462 139.83 174.61 140.125C174.758 140.347 174.868 140.642 174.942 141.012C175.016 141.381 175.053 141.75 175.053 142.12C175.053 142.563 175.016 142.969 174.942 143.338C174.868 143.708 174.758 144.04 174.61 144.335C174.462 144.557 174.241 144.742 173.945 144.889C173.65 144.963 173.28 145 172.837 145ZM132.064 161.952V153.975H138.158V161.952H132.064ZM172.812 145V139.239H187.105L184.335 141.676V89.6016H190.429V145H172.812ZM172.812 145C172.295 145 171.889 144.963 171.593 144.889C171.298 144.742 171.076 144.557 170.928 144.335C170.781 144.04 170.707 143.708 170.707 143.338C170.633 142.969 170.596 142.563 170.596 142.12C170.596 141.529 170.67 141.048 170.818 140.679C170.892 140.236 171.076 139.904 171.372 139.682C171.667 139.387 172.147 139.239 172.812 139.239V145ZM184.335 80.627V72.6496H190.429V80.627H184.335Z" fill="white"/>
<circle cx="31.2818" cy="89.8567" r="4.24" fill="white"/>
<circle cx="15.1698" cy="89.8567" r="4.24" fill="white"/>
<circle cx="187.726" cy="75.5081" r="7.25074" fill="white"/>
<path d="M5.17011 139.729H41.3609V121.714C41.3609 111.676 33.2593 103.538 23.2655 103.538C13.2717 103.538 5.17011 111.676 5.17011 121.714V139.729ZM23.2655 98.3682C36.1132 98.3682 46.531 108.82 46.531 121.714V144.899H0V121.714C0 108.82 10.4178 98.3682 23.2655 98.3682ZM16.8029 147.484H29.7281C29.7281 149.198 29.0472 150.842 27.8353 152.054C26.6233 153.266 24.9795 153.947 23.2655 153.947C21.5515 153.947 19.9077 153.266 18.6957 152.054C17.4837 150.842 16.8029 149.198 16.8029 147.484Z" fill="white"/>
<circle cx="135.711" cy="158.482" r="6.3757" fill="white"/>
</svg>
