<svg width="59" height="43" viewBox="0 0 59 43" fill="none" xmlns="http://www.w3.org/2000/svg">
<path d="M11.7775 42.466V39.6564H15.8963L21.1726 21.8328C21.4404 20.8307 21.9789 20.0385 22.788 19.456C23.5972 18.8734 24.5019 18.5831 25.502 18.585H33.498C34.5 18.585 35.4047 18.8753 36.212 19.456C37.0211 20.0385 37.5596 20.8307 37.8274 21.8328L43.1037 39.6564H47.2225V42.466H11.7775ZM28.0952 11.2381V0H30.9048V11.2381H28.0952ZM43.4071 17.596L41.4039 15.5929L49.3774 7.68686L51.3131 9.62262L43.4071 17.596ZM47.7619 30.9048V28.0952H59V30.9048H47.7619ZM15.5929 17.5932L7.68967 9.62262L9.62262 7.68686L17.5989 15.5929L15.5929 17.5932ZM0 30.9048V28.0952H11.2381V30.9048H0Z" fill="white"/>
</svg>
