<svg width="57" height="57" viewBox="0 0 57 57" fill="none" xmlns="http://www.w3.org/2000/svg">
<path d="M0 6.23438C0 2.793 2.793 0 6.23438 0H50.7656C54.207 0 57 2.793 57 6.23438V40.0781C57 41.7316 56.3432 43.3173 55.174 44.4865C54.0048 45.6557 52.4191 46.3125 50.7656 46.3125H28.7138L19.5474 55.4788C18.8209 56.2026 17.8963 56.6952 16.8902 56.8943C15.8842 57.0935 14.8417 56.9903 13.8942 56.5979C12.9466 56.2055 12.1365 55.5413 11.5658 54.6892C10.9952 53.837 10.6896 52.835 10.6875 51.8094V46.3125H6.23438C4.58092 46.3125 2.99518 45.6557 1.82601 44.4865C0.656834 43.3173 0 41.7316 0 40.0781L0 6.23438ZM6.23438 5.34375C5.99817 5.34375 5.77163 5.43758 5.60461 5.60461C5.43758 5.77163 5.34375 5.99817 5.34375 6.23438V40.0781C5.34375 40.5698 5.74275 40.9688 6.23438 40.9688H13.3594C14.068 40.9688 14.7476 41.2503 15.2487 41.7513C15.7498 42.2524 16.0312 42.932 16.0312 43.6406V51.4425L25.7212 41.7525C26.2218 41.2513 26.901 40.9694 27.6094 40.9688H50.7656C51.0018 40.9688 51.2284 40.8749 51.3954 40.7079C51.5624 40.5409 51.6562 40.3143 51.6562 40.0781V6.23438C51.6562 5.99817 51.5624 5.77163 51.3954 5.60461C51.2284 5.43758 51.0018 5.34375 50.7656 5.34375H6.23438ZM31.1719 13.3594V22.2656C31.1719 22.9743 30.8904 23.6539 30.3893 24.1549C29.8882 24.656 29.2086 24.9375 28.5 24.9375C27.7914 24.9375 27.1118 24.656 26.6107 24.1549C26.1096 23.6539 25.8281 22.9743 25.8281 22.2656V13.3594C25.8281 12.6508 26.1096 11.9711 26.6107 11.4701C27.1118 10.969 27.7914 10.6875 28.5 10.6875C29.2086 10.6875 29.8882 10.969 30.3893 11.4701C30.8904 11.9711 31.1719 12.6508 31.1719 13.3594ZM32.0625 32.0625C32.0625 33.0073 31.6872 33.9135 31.0191 34.5816C30.351 35.2497 29.4448 35.625 28.5 35.625C27.5552 35.625 26.649 35.2497 25.9809 34.5816C25.3128 33.9135 24.9375 33.0073 24.9375 32.0625C24.9375 31.1177 25.3128 30.2115 25.9809 29.5434C26.649 28.8753 27.5552 28.5 28.5 28.5C29.4448 28.5 30.351 28.8753 31.0191 29.5434C31.6872 30.2115 32.0625 31.1177 32.0625 32.0625Z" fill="white"/>
</svg>
