<svg width="41" height="41" viewBox="0 0 41 41" fill="none" xmlns="http://www.w3.org/2000/svg">
<path d="M20.5 31.5417C21.1257 31.5417 21.6505 31.3297 22.0745 30.9057C22.4985 30.4817 22.7098 29.9576 22.7083 29.3333C22.7069 28.7091 22.4949 28.185 22.0723 27.761C21.6498 27.337 21.1257 27.125 20.5 27.125C19.8743 27.125 19.3502 27.337 18.9277 27.761C18.5051 28.185 18.2931 28.7091 18.2917 29.3333C18.2902 29.9576 18.5022 30.4824 18.9277 30.9079C19.3531 31.3333 19.8772 31.5446 20.5 31.5417ZM20.5 22.7083C21.1257 22.7083 21.6505 22.4963 22.0745 22.0723C22.4985 21.6483 22.7098 21.1242 22.7083 20.5V11.6667C22.7083 11.041 22.4963 10.5169 22.0723 10.0943C21.6483 9.67181 21.1242 9.45981 20.5 9.45833C19.8758 9.45686 19.3517 9.66886 18.9277 10.0943C18.5037 10.5198 18.2917 11.0439 18.2917 11.6667V20.5C18.2917 21.1257 18.5037 21.6505 18.9277 22.0745C19.3517 22.4985 19.8758 22.7098 20.5 22.7083ZM14.0406 40.375C13.4517 40.375 12.8908 40.2646 12.3579 40.0438C11.8249 39.8229 11.3553 39.5101 10.949 39.1052L1.89479 30.051C1.48993 29.6462 1.17708 29.1765 0.95625 28.6421C0.735417 28.1077 0.625 27.5475 0.625 26.9616V14.0428C0.625 13.4539 0.735417 12.893 0.95625 12.3601C1.17708 11.8271 1.48993 11.3575 1.89479 10.9512L10.949 1.897C11.3538 1.49214 11.8235 1.17929 12.3579 0.958458C12.8923 0.737625 13.4532 0.626472 14.0406 0.625H26.9594C27.5483 0.625 28.1099 0.735417 28.6443 0.95625C29.1787 1.17708 29.6477 1.48993 30.051 1.89479L39.1052 10.949C39.5101 11.3538 39.8229 11.8235 40.0438 12.3579C40.2646 12.8923 40.375 13.4532 40.375 14.0406V26.9594C40.375 27.5483 40.2646 28.1099 40.0438 28.6443C39.8229 29.1787 39.5101 29.6477 39.1052 30.051L30.051 39.1052C29.6462 39.5101 29.1765 39.8229 28.6421 40.0438C28.1077 40.2646 27.5468 40.375 26.9594 40.375H14.0406Z" fill="white"/>
</svg>
